<svg xmlns="http://www.w3.org/2000/svg" id="svg15261" width="210mm" height="297mm" version="1.1" viewBox="0 0 744.094 1052.362"><metadata id="metadata15266"/><g id="layer1"><g id="g16332" fill="#1488cc" transform="matrix(22.359 0 0 22.359 -19527 -23416)"><g id="g45283" fill="#1488cc"><path id="path6608" d="m891.63 1061.7c0 2.0866-1.695 3.7802-3.7844 3.7802-2.0872 0-3.7822-1.6936-3.7822-3.7802 0-2.0906 1.695-3.7826 3.7822-3.7826 2.0894 0 3.7844 1.692 3.7844 3.7826"/><path id="path6610" d="m894.18 1076.1c0 2.4219-1.633 2.7474-3.6493 2.7474h-5.3908c-2.0119 0-3.6448-0.3255-3.6448-2.7474l1.0547-6.3223c0-2.02 1.3627-3.6582 3.0422-3.6582h4.4913c1.6795 0 3.04 1.6382 3.04 3.6582l1.0569 6.3223"/></g></g></g></svg>